# xmcd
#
# Track frame offsets: 
#        182
#        13832
#        34485
#        54995
#        78115
#        97262
#        107700
#        117900
#        132182
#        155295
#        180755
#        197232
#        214360
#        228507
#        241250
#        259905
#        278237
#        300240
#
# Disc length: 4231 seconds
#
# Revision: 3
# Processed by: cddbd v1.5.2PL0 Copyright (c) Steve Scherf et al.
# Submitted via: ExactAudioCopy v0.99pb4
#
DISCID=f2108512
DTITLE=Various Artist - Just A Taste
DYEAR=1995
DGENRE=Pop Rock
TTITLE0=The Sugargliders - Give Me Some Confidence
TTITLE1=Tender Engines - Girl From The Hinterland
TTITLE2=Autohaze - Hanging Around
TTITLE3=The Earthmen - Stacey's Cupboard
TTITLE4=Blindside - To Be Found
TTITLE5=Tender Engines - A Legend Never Fails
TTITLE6=Rainyard - Hell Bent Suicidal Over You Baby
TTITLE7=The Sugargliders - Police Me
TTITLE8=Blindside - Ether
TTITLE9=Jupiter - Lost
TTITLE10=Autohaze - Undecided
TTITLE11=Tender Engines - Pop Song I
TTITLE12=Rainyard - 1,000 Years
TTITLE13=Ripe - We're All Trying To Get There
TTITLE14=The Sugargliders - Sway
TTITLE15=Jupiter - Leave The Ground
TTITLE16=Afterglow - Fall Behind
TTITLE17=The Earthmen - Too Far Down
EXTD=
EXTT0=
EXTT1=
EXTT2=
EXTT3=
EXTT4=
EXTT5=
EXTT6=
EXTT7=
EXTT8=
EXTT9=
EXTT10=
EXTT11=
EXTT12=
EXTT13=
EXTT14=
EXTT15=
EXTT16=
EXTT17=
PLAYORDER=
